<mxfile host="Electron" agent="Mozilla/5.0 (Windows NT 10.0; Win64; x64) AppleWebKit/537.36 (KHTML, like Gecko) draw.io/28.2.5 Chrome/138.0.7204.251 Electron/37.6.1 Safari/537.36" version="28.2.5">
  <diagram name="Page-1" id="PK3mUTC519qYbUszX3hj">
    <mxGraphModel dx="1442" dy="626" grid="1" gridSize="10" guides="1" tooltips="1" connect="1" arrows="1" fold="1" page="0" pageScale="1" pageWidth="850" pageHeight="1100" background="#ffffff" math="0" shadow="0">
      <root>
        <mxCell id="0" />
        <mxCell id="1" parent="0" />
        <mxCell id="6W0N8xlAWjcyV8TKmi6p-1" value="&lt;font style=&quot;color: rgb(0, 0, 0); font-size: 15px;&quot;&gt;Bronze Layer&lt;/font&gt;" style="rounded=1;whiteSpace=wrap;html=1;strokeColor=#FFCE9F;fillColor=#FFB366;" vertex="1" parent="1">
          <mxGeometry x="-110" y="180" width="180" height="60" as="geometry" />
        </mxCell>
        <mxCell id="6W0N8xlAWjcyV8TKmi6p-2" value="&lt;span style=&quot;color: rgb(0, 0, 0); font-size: 15px;&quot;&gt;Silver Layer&lt;/span&gt;" style="rounded=1;whiteSpace=wrap;html=1;strokeColor=#FFCE9F;fillColor=#CCCCCC;" vertex="1" parent="1">
          <mxGeometry x="200" y="180" width="180" height="60" as="geometry" />
        </mxCell>
        <mxCell id="6W0N8xlAWjcyV8TKmi6p-3" value="&lt;span style=&quot;color: rgb(0, 0, 0); font-size: 15px;&quot;&gt;Gold Layer&lt;/span&gt;" style="rounded=1;whiteSpace=wrap;html=1;strokeColor=#FFCE9F;fillColor=#FFFF66;" vertex="1" parent="1">
          <mxGeometry x="510" y="180" width="180" height="60" as="geometry" />
        </mxCell>
        <mxCell id="6W0N8xlAWjcyV8TKmi6p-4" value="" style="rounded=1;whiteSpace=wrap;html=1;fillColor=#FFFFFF;strokeColor=light-dark(#000000,#F0A305);strokeWidth=3;gradientColor=none;dashed=1;dashPattern=12 12;perimeterSpacing=2;" vertex="1" parent="1">
          <mxGeometry x="-110" y="260" width="180" height="430" as="geometry" />
        </mxCell>
        <mxCell id="6W0N8xlAWjcyV8TKmi6p-5" value="" style="rounded=1;whiteSpace=wrap;html=1;fillColor=#FFFFFF;strokeColor=light-dark(#000000,#B3B3B3);strokeWidth=3;gradientColor=none;dashed=1;dashPattern=12 12;perimeterSpacing=2;" vertex="1" parent="1">
          <mxGeometry x="200" y="260" width="180" height="430" as="geometry" />
        </mxCell>
        <mxCell id="6W0N8xlAWjcyV8TKmi6p-6" value="" style="rounded=1;whiteSpace=wrap;html=1;fillColor=#FFFFFF;strokeColor=light-dark(#000000,#F0E80E);strokeWidth=3;gradientColor=none;dashed=1;dashPattern=12 12;perimeterSpacing=2;" vertex="1" parent="1">
          <mxGeometry x="510" y="260" width="180" height="430" as="geometry" />
        </mxCell>
        <mxCell id="6W0N8xlAWjcyV8TKmi6p-8" value="&lt;font style=&quot;color: rgb(0, 0, 0);&quot;&gt;crm_sales_details&lt;/font&gt;" style="rounded=1;whiteSpace=wrap;html=1;strokeColor=#FFCE9F;fillColor=#FFB366;" vertex="1" parent="1">
          <mxGeometry x="-90" y="290" width="140" height="40" as="geometry" />
        </mxCell>
        <mxCell id="6W0N8xlAWjcyV8TKmi6p-9" value="&lt;span style=&quot;color: rgb(0, 0, 0);&quot;&gt;crm_cust_info&lt;/span&gt;" style="rounded=1;whiteSpace=wrap;html=1;strokeColor=#FFCE9F;fillColor=#FFB366;" vertex="1" parent="1">
          <mxGeometry x="-90" y="350" width="140" height="40" as="geometry" />
        </mxCell>
        <mxCell id="6W0N8xlAWjcyV8TKmi6p-10" value="&lt;span style=&quot;color: rgb(0, 0, 0);&quot;&gt;crm_prd_info&lt;/span&gt;" style="rounded=1;whiteSpace=wrap;html=1;strokeColor=#FFCE9F;fillColor=#FFB366;" vertex="1" parent="1">
          <mxGeometry x="-90" y="410" width="140" height="40" as="geometry" />
        </mxCell>
        <mxCell id="6W0N8xlAWjcyV8TKmi6p-11" value="&lt;span style=&quot;color: rgb(0, 0, 0);&quot;&gt;erp_cust_az12&lt;/span&gt;" style="rounded=1;whiteSpace=wrap;html=1;strokeColor=#FFCE9F;fillColor=#FFB366;" vertex="1" parent="1">
          <mxGeometry x="-90" y="490" width="140" height="40" as="geometry" />
        </mxCell>
        <mxCell id="6W0N8xlAWjcyV8TKmi6p-12" value="&lt;span style=&quot;color: rgb(0, 0, 0);&quot;&gt;erp_loc_a101&lt;/span&gt;" style="rounded=1;whiteSpace=wrap;html=1;strokeColor=#FFCE9F;fillColor=#FFB366;" vertex="1" parent="1">
          <mxGeometry x="-90" y="550" width="140" height="40" as="geometry" />
        </mxCell>
        <mxCell id="6W0N8xlAWjcyV8TKmi6p-13" value="&lt;span style=&quot;color: rgb(0, 0, 0);&quot;&gt;erp_px_cat_g1v2&lt;/span&gt;" style="rounded=1;whiteSpace=wrap;html=1;strokeColor=#FFCE9F;fillColor=#FFB366;" vertex="1" parent="1">
          <mxGeometry x="-90" y="610" width="140" height="40" as="geometry" />
        </mxCell>
        <mxCell id="6W0N8xlAWjcyV8TKmi6p-14" value="&lt;span style=&quot;color: rgb(0, 0, 0);&quot;&gt;crm_sales_details&lt;/span&gt;" style="rounded=1;whiteSpace=wrap;html=1;strokeColor=#FFCE9F;fillColor=#CCCCCC;" vertex="1" parent="1">
          <mxGeometry x="220" y="290" width="140" height="40" as="geometry" />
        </mxCell>
        <mxCell id="6W0N8xlAWjcyV8TKmi6p-15" value="&lt;span style=&quot;color: rgb(0, 0, 0);&quot;&gt;crm_cust_info&lt;/span&gt;" style="rounded=1;whiteSpace=wrap;html=1;strokeColor=#FFCE9F;fillColor=#CCCCCC;" vertex="1" parent="1">
          <mxGeometry x="220" y="350" width="140" height="40" as="geometry" />
        </mxCell>
        <mxCell id="6W0N8xlAWjcyV8TKmi6p-16" value="&lt;span style=&quot;color: rgb(0, 0, 0);&quot;&gt;crm_prd_info&lt;/span&gt;" style="rounded=1;whiteSpace=wrap;html=1;strokeColor=#FFCE9F;fillColor=#CCCCCC;" vertex="1" parent="1">
          <mxGeometry x="220" y="410" width="140" height="40" as="geometry" />
        </mxCell>
        <mxCell id="6W0N8xlAWjcyV8TKmi6p-17" value="&lt;span style=&quot;color: rgb(0, 0, 0);&quot;&gt;erp_cust_az12&lt;/span&gt;" style="rounded=1;whiteSpace=wrap;html=1;strokeColor=#FFCE9F;fillColor=#CCCCCC;" vertex="1" parent="1">
          <mxGeometry x="220" y="490" width="140" height="40" as="geometry" />
        </mxCell>
        <mxCell id="6W0N8xlAWjcyV8TKmi6p-18" value="&lt;span style=&quot;color: rgb(0, 0, 0);&quot;&gt;erp_loc_a101&lt;/span&gt;" style="rounded=1;whiteSpace=wrap;html=1;strokeColor=#FFCE9F;fillColor=#CCCCCC;" vertex="1" parent="1">
          <mxGeometry x="220" y="550" width="140" height="40" as="geometry" />
        </mxCell>
        <mxCell id="6W0N8xlAWjcyV8TKmi6p-19" value="&lt;span style=&quot;color: rgb(0, 0, 0);&quot;&gt;erp_px_cat_g1v2&lt;/span&gt;" style="rounded=1;whiteSpace=wrap;html=1;strokeColor=#FFCE9F;fillColor=#CCCCCC;" vertex="1" parent="1">
          <mxGeometry x="220" y="610" width="140" height="40" as="geometry" />
        </mxCell>
        <mxCell id="6W0N8xlAWjcyV8TKmi6p-20" value="&lt;font style=&quot;color: rgb(0, 0, 0);&quot;&gt;fact_sales&lt;/font&gt;" style="rounded=1;whiteSpace=wrap;html=1;strokeColor=#FFCE9F;fillColor=#FFFF66;" vertex="1" parent="1">
          <mxGeometry x="530" y="290" width="140" height="40" as="geometry" />
        </mxCell>
        <mxCell id="6W0N8xlAWjcyV8TKmi6p-21" value="&lt;font style=&quot;color: rgb(0, 0, 0);&quot;&gt;dim_customers&lt;/font&gt;" style="rounded=1;whiteSpace=wrap;html=1;strokeColor=#FFCE9F;fillColor=#FFFF66;" vertex="1" parent="1">
          <mxGeometry x="530" y="455" width="140" height="40" as="geometry" />
        </mxCell>
        <mxCell id="6W0N8xlAWjcyV8TKmi6p-22" value="&lt;font style=&quot;color: rgb(0, 0, 0);&quot;&gt;dim_products&lt;/font&gt;" style="rounded=1;whiteSpace=wrap;html=1;strokeColor=#FFCE9F;fillColor=#FFFF66;" vertex="1" parent="1">
          <mxGeometry x="530" y="600" width="140" height="40" as="geometry" />
        </mxCell>
        <mxCell id="6W0N8xlAWjcyV8TKmi6p-26" value="" style="endArrow=classic;html=1;rounded=0;exitX=1;exitY=0.5;exitDx=0;exitDy=0;strokeColor=#000000;" edge="1" parent="1" source="6W0N8xlAWjcyV8TKmi6p-8" target="6W0N8xlAWjcyV8TKmi6p-14">
          <mxGeometry width="50" height="50" relative="1" as="geometry">
            <mxPoint x="180" y="460" as="sourcePoint" />
            <mxPoint x="150" y="360" as="targetPoint" />
          </mxGeometry>
        </mxCell>
        <mxCell id="6W0N8xlAWjcyV8TKmi6p-27" value="" style="endArrow=classic;html=1;rounded=0;exitX=1;exitY=0.5;exitDx=0;exitDy=0;strokeColor=#000000;entryX=0;entryY=0.5;entryDx=0;entryDy=0;" edge="1" parent="1" source="6W0N8xlAWjcyV8TKmi6p-9" target="6W0N8xlAWjcyV8TKmi6p-15">
          <mxGeometry width="50" height="50" relative="1" as="geometry">
            <mxPoint x="120" y="370" as="sourcePoint" />
            <mxPoint x="290" y="370" as="targetPoint" />
          </mxGeometry>
        </mxCell>
        <mxCell id="6W0N8xlAWjcyV8TKmi6p-28" value="" style="endArrow=classic;html=1;rounded=0;exitX=1;exitY=0.5;exitDx=0;exitDy=0;strokeColor=#000000;entryX=0;entryY=0.5;entryDx=0;entryDy=0;" edge="1" parent="1" source="6W0N8xlAWjcyV8TKmi6p-10" target="6W0N8xlAWjcyV8TKmi6p-16">
          <mxGeometry width="50" height="50" relative="1" as="geometry">
            <mxPoint x="120" y="410" as="sourcePoint" />
            <mxPoint x="290" y="410" as="targetPoint" />
          </mxGeometry>
        </mxCell>
        <mxCell id="6W0N8xlAWjcyV8TKmi6p-29" value="" style="endArrow=classic;html=1;rounded=0;exitX=1;exitY=0.5;exitDx=0;exitDy=0;strokeColor=#000000;entryX=0;entryY=0.5;entryDx=0;entryDy=0;" edge="1" parent="1" source="6W0N8xlAWjcyV8TKmi6p-11" target="6W0N8xlAWjcyV8TKmi6p-17">
          <mxGeometry width="50" height="50" relative="1" as="geometry">
            <mxPoint x="120" y="490" as="sourcePoint" />
            <mxPoint x="290" y="490" as="targetPoint" />
          </mxGeometry>
        </mxCell>
        <mxCell id="6W0N8xlAWjcyV8TKmi6p-30" value="" style="endArrow=classic;html=1;rounded=0;exitX=1;exitY=0.5;exitDx=0;exitDy=0;strokeColor=#000000;entryX=0;entryY=0.5;entryDx=0;entryDy=0;" edge="1" parent="1" source="6W0N8xlAWjcyV8TKmi6p-12" target="6W0N8xlAWjcyV8TKmi6p-18">
          <mxGeometry width="50" height="50" relative="1" as="geometry">
            <mxPoint x="120" y="550" as="sourcePoint" />
            <mxPoint x="290" y="550" as="targetPoint" />
          </mxGeometry>
        </mxCell>
        <mxCell id="6W0N8xlAWjcyV8TKmi6p-31" value="" style="endArrow=classic;html=1;rounded=0;exitX=1;exitY=0.5;exitDx=0;exitDy=0;strokeColor=#000000;entryX=0;entryY=0.5;entryDx=0;entryDy=0;" edge="1" parent="1" source="6W0N8xlAWjcyV8TKmi6p-13" target="6W0N8xlAWjcyV8TKmi6p-19">
          <mxGeometry width="50" height="50" relative="1" as="geometry">
            <mxPoint x="110" y="620" as="sourcePoint" />
            <mxPoint x="280" y="620" as="targetPoint" />
          </mxGeometry>
        </mxCell>
        <mxCell id="6W0N8xlAWjcyV8TKmi6p-32" value="" style="endArrow=classic;html=1;rounded=0;exitX=1;exitY=0.5;exitDx=0;exitDy=0;strokeColor=#000000;entryX=0;entryY=0.5;entryDx=0;entryDy=0;" edge="1" parent="1" source="6W0N8xlAWjcyV8TKmi6p-14" target="6W0N8xlAWjcyV8TKmi6p-20">
          <mxGeometry width="50" height="50" relative="1" as="geometry">
            <mxPoint x="420" y="310" as="sourcePoint" />
            <mxPoint x="590" y="310" as="targetPoint" />
          </mxGeometry>
        </mxCell>
        <mxCell id="6W0N8xlAWjcyV8TKmi6p-33" value="" style="endArrow=classic;html=1;rounded=0;exitX=1;exitY=0.5;exitDx=0;exitDy=0;strokeColor=#000000;entryX=0;entryY=0.5;entryDx=0;entryDy=0;" edge="1" parent="1" source="6W0N8xlAWjcyV8TKmi6p-15" target="6W0N8xlAWjcyV8TKmi6p-21">
          <mxGeometry width="50" height="50" relative="1" as="geometry">
            <mxPoint x="430" y="390" as="sourcePoint" />
            <mxPoint x="600" y="390" as="targetPoint" />
          </mxGeometry>
        </mxCell>
        <mxCell id="6W0N8xlAWjcyV8TKmi6p-34" value="" style="endArrow=classic;html=1;rounded=0;exitX=1;exitY=0.5;exitDx=0;exitDy=0;strokeColor=#000000;entryX=0;entryY=0.5;entryDx=0;entryDy=0;" edge="1" parent="1" source="6W0N8xlAWjcyV8TKmi6p-16" target="6W0N8xlAWjcyV8TKmi6p-22">
          <mxGeometry width="50" height="50" relative="1" as="geometry">
            <mxPoint x="380" y="450" as="sourcePoint" />
            <mxPoint x="550" y="450" as="targetPoint" />
          </mxGeometry>
        </mxCell>
        <mxCell id="6W0N8xlAWjcyV8TKmi6p-35" value="" style="endArrow=classic;html=1;rounded=0;exitX=1;exitY=0.5;exitDx=0;exitDy=0;strokeColor=#000000;entryX=0;entryY=0.5;entryDx=0;entryDy=0;" edge="1" parent="1" source="6W0N8xlAWjcyV8TKmi6p-17" target="6W0N8xlAWjcyV8TKmi6p-21">
          <mxGeometry width="50" height="50" relative="1" as="geometry">
            <mxPoint x="390" y="510" as="sourcePoint" />
            <mxPoint x="560" y="510" as="targetPoint" />
          </mxGeometry>
        </mxCell>
        <mxCell id="6W0N8xlAWjcyV8TKmi6p-36" value="" style="endArrow=classic;html=1;rounded=0;exitX=1;exitY=0.5;exitDx=0;exitDy=0;strokeColor=#000000;entryX=0;entryY=0.5;entryDx=0;entryDy=0;" edge="1" parent="1" source="6W0N8xlAWjcyV8TKmi6p-18" target="6W0N8xlAWjcyV8TKmi6p-21">
          <mxGeometry width="50" height="50" relative="1" as="geometry">
            <mxPoint x="410" y="590" as="sourcePoint" />
            <mxPoint x="580" y="590" as="targetPoint" />
          </mxGeometry>
        </mxCell>
        <mxCell id="6W0N8xlAWjcyV8TKmi6p-37" value="" style="endArrow=classic;html=1;rounded=0;exitX=1;exitY=0.5;exitDx=0;exitDy=0;strokeColor=#000000;entryX=0;entryY=0.5;entryDx=0;entryDy=0;" edge="1" parent="1" source="6W0N8xlAWjcyV8TKmi6p-19" target="6W0N8xlAWjcyV8TKmi6p-22">
          <mxGeometry width="50" height="50" relative="1" as="geometry">
            <mxPoint x="420" y="590" as="sourcePoint" />
            <mxPoint x="590" y="590" as="targetPoint" />
          </mxGeometry>
        </mxCell>
        <mxCell id="6W0N8xlAWjcyV8TKmi6p-39" value="&lt;font style=&quot;color: rgb(0, 0, 0); font-size: 15px;&quot;&gt;Source&lt;/font&gt;" style="rounded=1;whiteSpace=wrap;html=1;strokeColor=#FFCE9F;fillColor=#F6FFFB;" vertex="1" parent="1">
          <mxGeometry x="-320" y="180" width="160" height="50" as="geometry" />
        </mxCell>
        <mxCell id="6W0N8xlAWjcyV8TKmi6p-44" value="" style="edgeStyle=orthogonalEdgeStyle;rounded=0;orthogonalLoop=1;jettySize=auto;html=1;" edge="1" parent="1" source="6W0N8xlAWjcyV8TKmi6p-41" target="6W0N8xlAWjcyV8TKmi6p-43">
          <mxGeometry relative="1" as="geometry" />
        </mxCell>
        <mxCell id="6W0N8xlAWjcyV8TKmi6p-45" value="" style="edgeStyle=orthogonalEdgeStyle;rounded=0;orthogonalLoop=1;jettySize=auto;html=1;" edge="1" parent="1" source="6W0N8xlAWjcyV8TKmi6p-41" target="6W0N8xlAWjcyV8TKmi6p-43">
          <mxGeometry relative="1" as="geometry" />
        </mxCell>
        <mxCell id="6W0N8xlAWjcyV8TKmi6p-46" value="" style="edgeStyle=orthogonalEdgeStyle;rounded=0;orthogonalLoop=1;jettySize=auto;html=1;" edge="1" parent="1" source="6W0N8xlAWjcyV8TKmi6p-41" target="6W0N8xlAWjcyV8TKmi6p-43">
          <mxGeometry relative="1" as="geometry" />
        </mxCell>
        <mxCell id="6W0N8xlAWjcyV8TKmi6p-41" value="&lt;font style=&quot;color: rgb(0, 0, 0); font-size: 17px;&quot;&gt;CRM&lt;/font&gt;" style="html=1;verticalLabelPosition=bottom;align=center;labelBackgroundColor=#ffffff;verticalAlign=top;strokeWidth=2;strokeColor=#0080F0;shadow=0;dashed=0;shape=mxgraph.ios7.icons.document;fillColor=#FFFFFF;" vertex="1" parent="1">
          <mxGeometry x="-280" y="290" width="80" height="100" as="geometry" />
        </mxCell>
        <mxCell id="6W0N8xlAWjcyV8TKmi6p-48" value="" style="edgeStyle=orthogonalEdgeStyle;rounded=0;orthogonalLoop=1;jettySize=auto;html=1;" edge="1" parent="1" source="6W0N8xlAWjcyV8TKmi6p-43">
          <mxGeometry relative="1" as="geometry">
            <mxPoint x="-240" y="650" as="targetPoint" />
          </mxGeometry>
        </mxCell>
        <mxCell id="6W0N8xlAWjcyV8TKmi6p-49" value="Text" style="edgeLabel;html=1;align=center;verticalAlign=middle;resizable=0;points=[];" vertex="1" connectable="0" parent="6W0N8xlAWjcyV8TKmi6p-48">
          <mxGeometry x="-0.625" y="-3" relative="1" as="geometry">
            <mxPoint as="offset" />
          </mxGeometry>
        </mxCell>
        <mxCell id="6W0N8xlAWjcyV8TKmi6p-51" value="" style="edgeStyle=orthogonalEdgeStyle;rounded=0;orthogonalLoop=1;jettySize=auto;html=1;" edge="1" parent="1" source="6W0N8xlAWjcyV8TKmi6p-43">
          <mxGeometry relative="1" as="geometry">
            <mxPoint x="-240" y="650" as="targetPoint" />
          </mxGeometry>
        </mxCell>
        <mxCell id="6W0N8xlAWjcyV8TKmi6p-43" value="&lt;font style=&quot;font-size: 17px; color: rgb(0, 0, 0);&quot;&gt;ERP&lt;/font&gt;" style="html=1;verticalLabelPosition=bottom;align=center;labelBackgroundColor=#ffffff;verticalAlign=top;strokeWidth=2;strokeColor=#0080F0;shadow=0;dashed=0;shape=mxgraph.ios7.icons.document;fillColor=#FFFFFF;" vertex="1" parent="1">
          <mxGeometry x="-280" y="470" width="80" height="100" as="geometry" />
        </mxCell>
      </root>
    </mxGraphModel>
  </diagram>
</mxfile>
